<mxfile host="app.diagrams.net" modified="2024-03-09T13:06:14.831Z" agent="Mozilla/5.0 (Windows NT 10.0; Win64; x64; rv:123.0) Gecko/20100101 Firefox/123.0" etag="3PhbvtADvVuYfUtUamPt" version="24.0.3" type="device">
  <diagram name="Страница — 1" id="x3yM7cVi0MjaEwVNj5n8">
    <mxGraphModel dx="1674" dy="751" grid="1" gridSize="10" guides="1" tooltips="1" connect="1" arrows="1" fold="1" page="1" pageScale="1" pageWidth="827" pageHeight="1169" math="0" shadow="0">
      <root>
        <mxCell id="0" />
        <mxCell id="1" parent="0" />
        <mxCell id="gHt9KPlCNGltElpXhwQw-12" style="edgeStyle=orthogonalEdgeStyle;rounded=0;orthogonalLoop=1;jettySize=auto;html=1;exitX=0;exitY=0.5;exitDx=0;exitDy=0;entryX=0.5;entryY=0;entryDx=0;entryDy=0;" edge="1" parent="1" source="gHt9KPlCNGltElpXhwQw-1" target="gHt9KPlCNGltElpXhwQw-2">
          <mxGeometry relative="1" as="geometry" />
        </mxCell>
        <mxCell id="gHt9KPlCNGltElpXhwQw-13" style="edgeStyle=orthogonalEdgeStyle;rounded=0;orthogonalLoop=1;jettySize=auto;html=1;exitX=1;exitY=0.5;exitDx=0;exitDy=0;entryX=0.5;entryY=0;entryDx=0;entryDy=0;" edge="1" parent="1" source="gHt9KPlCNGltElpXhwQw-1" target="gHt9KPlCNGltElpXhwQw-3">
          <mxGeometry relative="1" as="geometry" />
        </mxCell>
        <mxCell id="gHt9KPlCNGltElpXhwQw-18" style="edgeStyle=orthogonalEdgeStyle;rounded=0;orthogonalLoop=1;jettySize=auto;html=1;exitX=1;exitY=0.5;exitDx=0;exitDy=0;entryX=1;entryY=0.5;entryDx=0;entryDy=0;" edge="1" parent="1" source="gHt9KPlCNGltElpXhwQw-1" target="gHt9KPlCNGltElpXhwQw-7">
          <mxGeometry relative="1" as="geometry" />
        </mxCell>
        <mxCell id="gHt9KPlCNGltElpXhwQw-1" value="Отчеты" style="rounded=0;whiteSpace=wrap;html=1;" vertex="1" parent="1">
          <mxGeometry x="320" y="90" width="120" height="60" as="geometry" />
        </mxCell>
        <mxCell id="gHt9KPlCNGltElpXhwQw-14" style="edgeStyle=orthogonalEdgeStyle;rounded=0;orthogonalLoop=1;jettySize=auto;html=1;exitX=0;exitY=0.5;exitDx=0;exitDy=0;entryX=0;entryY=0.5;entryDx=0;entryDy=0;" edge="1" parent="1" source="gHt9KPlCNGltElpXhwQw-2" target="gHt9KPlCNGltElpXhwQw-4">
          <mxGeometry relative="1" as="geometry" />
        </mxCell>
        <mxCell id="gHt9KPlCNGltElpXhwQw-15" style="edgeStyle=orthogonalEdgeStyle;rounded=0;orthogonalLoop=1;jettySize=auto;html=1;exitX=0;exitY=0.5;exitDx=0;exitDy=0;entryX=0;entryY=0.5;entryDx=0;entryDy=0;" edge="1" parent="1" source="gHt9KPlCNGltElpXhwQw-2" target="gHt9KPlCNGltElpXhwQw-5">
          <mxGeometry relative="1" as="geometry" />
        </mxCell>
        <mxCell id="gHt9KPlCNGltElpXhwQw-2" value="Операционные отчеты" style="rounded=0;whiteSpace=wrap;html=1;" vertex="1" parent="1">
          <mxGeometry x="40" y="190" width="120" height="60" as="geometry" />
        </mxCell>
        <mxCell id="gHt9KPlCNGltElpXhwQw-17" style="edgeStyle=orthogonalEdgeStyle;rounded=0;orthogonalLoop=1;jettySize=auto;html=1;exitX=1;exitY=0.5;exitDx=0;exitDy=0;entryX=1;entryY=0.5;entryDx=0;entryDy=0;" edge="1" parent="1" source="gHt9KPlCNGltElpXhwQw-3" target="gHt9KPlCNGltElpXhwQw-6">
          <mxGeometry relative="1" as="geometry">
            <mxPoint x="790" y="270" as="targetPoint" />
          </mxGeometry>
        </mxCell>
        <mxCell id="gHt9KPlCNGltElpXhwQw-23" style="edgeStyle=orthogonalEdgeStyle;rounded=0;orthogonalLoop=1;jettySize=auto;html=1;exitX=0;exitY=0.5;exitDx=0;exitDy=0;entryX=1;entryY=0.5;entryDx=0;entryDy=0;" edge="1" parent="1" source="gHt9KPlCNGltElpXhwQw-3" target="gHt9KPlCNGltElpXhwQw-11">
          <mxGeometry relative="1" as="geometry" />
        </mxCell>
        <mxCell id="gHt9KPlCNGltElpXhwQw-3" value="&lt;div&gt;Финансовые&lt;/div&gt;&lt;div&gt;&amp;nbsp;отчеты&lt;/div&gt;" style="rounded=0;whiteSpace=wrap;html=1;" vertex="1" parent="1">
          <mxGeometry x="600" y="190" width="120" height="60" as="geometry" />
        </mxCell>
        <mxCell id="gHt9KPlCNGltElpXhwQw-19" style="edgeStyle=orthogonalEdgeStyle;rounded=0;orthogonalLoop=1;jettySize=auto;html=1;exitX=1;exitY=0.5;exitDx=0;exitDy=0;entryX=0;entryY=0.5;entryDx=0;entryDy=0;" edge="1" parent="1" source="gHt9KPlCNGltElpXhwQw-4" target="gHt9KPlCNGltElpXhwQw-9">
          <mxGeometry relative="1" as="geometry" />
        </mxCell>
        <mxCell id="gHt9KPlCNGltElpXhwQw-21" style="edgeStyle=orthogonalEdgeStyle;rounded=0;orthogonalLoop=1;jettySize=auto;html=1;exitX=1;exitY=0.5;exitDx=0;exitDy=0;entryX=0;entryY=0.5;entryDx=0;entryDy=0;" edge="1" parent="1" source="gHt9KPlCNGltElpXhwQw-4" target="gHt9KPlCNGltElpXhwQw-11">
          <mxGeometry relative="1" as="geometry" />
        </mxCell>
        <mxCell id="gHt9KPlCNGltElpXhwQw-4" value="Функциональный отчет" style="rounded=0;whiteSpace=wrap;html=1;" vertex="1" parent="1">
          <mxGeometry x="130" y="290" width="120" height="60" as="geometry" />
        </mxCell>
        <mxCell id="gHt9KPlCNGltElpXhwQw-22" style="edgeStyle=orthogonalEdgeStyle;rounded=0;orthogonalLoop=1;jettySize=auto;html=1;exitX=0.5;exitY=1;exitDx=0;exitDy=0;" edge="1" parent="1" source="gHt9KPlCNGltElpXhwQw-5" target="gHt9KPlCNGltElpXhwQw-10">
          <mxGeometry relative="1" as="geometry">
            <Array as="points">
              <mxPoint x="190" y="460" />
              <mxPoint x="320" y="460" />
              <mxPoint x="320" y="350" />
            </Array>
          </mxGeometry>
        </mxCell>
        <mxCell id="gHt9KPlCNGltElpXhwQw-5" value="Интеграционный отчет" style="rounded=0;whiteSpace=wrap;html=1;" vertex="1" parent="1">
          <mxGeometry x="130" y="380" width="120" height="60" as="geometry" />
        </mxCell>
        <mxCell id="gHt9KPlCNGltElpXhwQw-24" style="edgeStyle=orthogonalEdgeStyle;rounded=0;orthogonalLoop=1;jettySize=auto;html=1;exitX=0;exitY=0.5;exitDx=0;exitDy=0;entryX=1;entryY=0.5;entryDx=0;entryDy=0;" edge="1" parent="1" source="gHt9KPlCNGltElpXhwQw-6" target="gHt9KPlCNGltElpXhwQw-11">
          <mxGeometry relative="1" as="geometry">
            <Array as="points">
              <mxPoint x="577" y="320" />
              <mxPoint x="577" y="440" />
              <mxPoint x="474" y="440" />
            </Array>
          </mxGeometry>
        </mxCell>
        <mxCell id="gHt9KPlCNGltElpXhwQw-6" value="Отчеты о доходах и расходах" style="rounded=0;whiteSpace=wrap;html=1;" vertex="1" parent="1">
          <mxGeometry x="680" y="290" width="120" height="60" as="geometry" />
        </mxCell>
        <mxCell id="gHt9KPlCNGltElpXhwQw-7" value="Отчет о движении денежных средств" style="rounded=0;whiteSpace=wrap;html=1;" vertex="1" parent="1">
          <mxGeometry x="680" y="380" width="120" height="60" as="geometry" />
        </mxCell>
        <mxCell id="gHt9KPlCNGltElpXhwQw-9" value="Бизнес-процессы" style="ellipse;whiteSpace=wrap;html=1;" vertex="1" parent="1">
          <mxGeometry x="354" y="250" width="120" height="60" as="geometry" />
        </mxCell>
        <mxCell id="gHt9KPlCNGltElpXhwQw-10" value="Мобильное приложение" style="ellipse;whiteSpace=wrap;html=1;" vertex="1" parent="1">
          <mxGeometry x="354" y="320" width="120" height="60" as="geometry" />
        </mxCell>
        <mxCell id="gHt9KPlCNGltElpXhwQw-11" value="Проект" style="ellipse;whiteSpace=wrap;html=1;" vertex="1" parent="1">
          <mxGeometry x="354" y="390" width="120" height="60" as="geometry" />
        </mxCell>
        <mxCell id="gHt9KPlCNGltElpXhwQw-25" style="edgeStyle=orthogonalEdgeStyle;rounded=0;orthogonalLoop=1;jettySize=auto;html=1;exitX=0;exitY=0.5;exitDx=0;exitDy=0;entryX=0.583;entryY=1;entryDx=0;entryDy=0;entryPerimeter=0;" edge="1" parent="1" source="gHt9KPlCNGltElpXhwQw-7" target="gHt9KPlCNGltElpXhwQw-11">
          <mxGeometry relative="1" as="geometry">
            <Array as="points">
              <mxPoint x="600" y="410" />
              <mxPoint x="600" y="480" />
              <mxPoint x="424" y="480" />
            </Array>
          </mxGeometry>
        </mxCell>
      </root>
    </mxGraphModel>
  </diagram>
</mxfile>
